# xmcd
#
# Track frame offsets: 
#        150
#        10752
#        21923
#        35529
#        50478
#        62441
#        70934
#        82598
#        95829
#        104180
#        113785
#        126607
#
# Disc length: 1862 seconds
#
# Revision: 0
# Processed by: cddbd v1.5.2PL0 Copyright (c) Steve Scherf et al.
# Submitted via: ExactAudioCopyFreeDBPlugin 1.0
#
DISCID=a207440c
DTITLE=Hank Snow - Railroad Man
DYEAR=2013
DGENRE=Country
TTITLE0=Waiting for a Train
TTITLE1=Big Wheels
TTITLE2=The Last Ride
TTITLE3=The Streamline Cannonball
TTITLE4=Ghost Trains
TTITLE5=Pan American
TTITLE6=Southbound
TTITLE7=Way Out There
TTITLE8=Chattanooga Choo Choo
TTITLE9=The Wreck of the Number Nine
TTITLE10=Lonesome Whistle
TTITLE11=The Crazy Engineer
EXTD=
EXTT0=
EXTT1=
EXTT2=
EXTT3=
EXTT4=
EXTT5=
EXTT6=
EXTT7=
EXTT8=
EXTT9=
EXTT10=
EXTT11=
PLAYORDER=
